{"accessors":[{"bufferView":0,"componentType":5126,"count":420,"max":[2.5,2.5,4.5],"min":[-2.5,-2.5,-4.5],"normalized":false,"type":"VEC3"},{"bufferView":1,"componentType":5126,"count":420,"max":[1.0,0.2982662618160248,1.0,1.0],"min":[-1.0,-1.0,-1.0,-1.0],"normalized":false,"type":"VEC4"},{"bufferView":2,"componentType":5126,"count":420,"max":[1.0,1.0,1.0],"min":[-1.0,-1.0,-1.0],"normalized":false,"type":"VEC3"},{"bufferView":3,"componentType":5126,"count":420,"max":[1.0,1.0],"min":[0.0,0.0],"normalized":false,"type":"VEC2"},{"bufferView":4,"componentType":5123,"count":420,"max":[419],"min":[0],"normalized":false,"type":"SCALAR"}],"asset":{"generator":"Godot Engine v4.6.stable.official@89cea143987d564363e15d207438530651d943ac","version":"2.0"},"bufferViews":[{"buffer":0,"byteLength":5040,"byteStride":12,"target":34962},{"buffer":0,"byteLength":6720,"byteOffset":5040,"byteStride":16,"target":34962},{"buffer":0,"byteLength":5040,"byteOffset":11760,"byteStride":12,"target":34962},{"buffer":0,"byteLength":3360,"byteOffset":16800,"byteStride":8,"target":34962},{"buffer":0,"byteLength":840,"byteOffset":20160,"target":34963}],"buffers":[{"byteLength":21000,"uri":"airlock_mesh0.bin"}],"extensionsUsed":["GODOT_single_root"],"materials":[{}],"meshes":[{"name":"AirlockMesh2","primitives":[{"attributes":{"NORMAL":2,"POSITION":0,"TANGENT":1,"TEXCOORD_0":3},"indices":4,"material":0,"mode":4}]}],"nodes":[{"children":[1,2,3,4,5,6,7],"mesh":0,"name":"AirlockMesh2"},{"name":"Outer"},{"name":"Hollow"},{"name":"Bevel1","translation":[-1.5,-1.5,0.0]},{"name":"Bevel2","rotation":[0.0,1.0,0.0,-4.371138828673793e-08],"translation":[1.5,-1.5,0.0]},{"name":"Bevel3","rotation":[0.0,0.0,1.0,4.371138828673793e-08],"translation":[1.5,1.5,0.0]},{"name":"Bevel4","rotation":[1.0,-4.371138828673793e-08,4.371138828673793e-08,1.910685465164705e-15],"translation":[-1.5,1.5,0.0]},{"name":"Entry","rotation":[0.0,0.7071067690849304,0.0,0.7071067690849304]}],"scene":0,"scenes":[{"nodes":[0]}]}