{"accessors":[{"bufferView":0,"componentType":5126,"count":228,"max":[0.0,2.5,6.25],"min":[-9.375,-2.5,-6.25],"normalized":false,"type":"VEC3"},{"bufferView":1,"componentType":5126,"count":228,"max":[1.0,0.0,1.5259254723787308e-05,1.0],"min":[-0.997827410697937,-1.0,-0.9950910806655884,-1.0],"normalized":false,"type":"VEC4"},{"bufferView":2,"componentType":5126,"count":228,"max":[1.0,1.0,0.9913265705108643],"min":[0.0,-1.0,-1.0],"normalized":false,"type":"VEC3"},{"bufferView":3,"componentType":5126,"count":228,"max":[1.0,1.0],"min":[0.0,0.0],"normalized":false,"type":"VEC2"},{"bufferView":4,"componentType":5121,"count":228,"max":[227],"min":[0],"normalized":false,"type":"SCALAR"}],"asset":{"generator":"Godot Engine v4.6.stable.official@89cea143987d564363e15d207438530651d943ac","version":"2.0"},"bufferViews":[{"buffer":0,"byteLength":2736,"byteStride":12,"target":34962},{"buffer":0,"byteLength":3648,"byteOffset":2736,"byteStride":16,"target":34962},{"buffer":0,"byteLength":2736,"byteOffset":6384,"byteStride":12,"target":34962},{"buffer":0,"byteLength":1824,"byteOffset":9120,"byteStride":8,"target":34962},{"buffer":0,"byteLength":228,"byteOffset":10944,"target":34963}],"buffers":[{"byteLength":11172,"uri":"CockpitMesh0.bin"}],"extensionsUsed":["GODOT_single_root"],"materials":[{}],"meshes":[{"name":"CockpitMesh2","primitives":[{"attributes":{"NORMAL":2,"POSITION":0,"TANGENT":1,"TEXCOORD_0":3},"indices":4,"material":0,"mode":4}]}],"nodes":[{"children":[1,2,3],"mesh":0,"name":"CockpitMesh2"},{"name":"CSGCylinder3D","scale":[1.875,1.25,1.25]},{"name":"CSGCylinder3D2","scale":[1.5,1.0,1.0]},{"name":"CSGBox3D","translation":[6.0,0.0,0.0]}],"scene":0,"scenes":[{"nodes":[0]}]}