{"accessors":[{"bufferView":0,"componentType":5126,"count":972,"max":[18.75,3.2071080207824707,3.2071080207824707],"min":[-18.75,-3.2071080207824707,-3.2071080207824707],"normalized":false,"type":"VEC3"},{"bufferView":1,"componentType":5126,"count":972,"max":[1.0,0.70719313621521,0.8320600390434265,1.0],"min":[-1.0,-1.0,-1.0,-1.0],"normalized":false,"type":"VEC4"},{"bufferView":2,"componentType":5126,"count":972,"max":[1.0,1.0,1.0],"min":[-1.0,-1.0,-1.0],"normalized":false,"type":"VEC3"},{"bufferView":3,"componentType":5126,"count":972,"max":[1.0,1.0],"min":[0.0,0.0],"normalized":false,"type":"VEC2"},{"bufferView":4,"componentType":5123,"count":972,"max":[971],"min":[0],"normalized":false,"type":"SCALAR"}],"asset":{"generator":"Godot Engine v4.6.stable.official@89cea143987d564363e15d207438530651d943ac","version":"2.0"},"bufferViews":[{"buffer":0,"byteLength":11664,"byteStride":12,"target":34962},{"buffer":0,"byteLength":15552,"byteOffset":11664,"byteStride":16,"target":34962},{"buffer":0,"byteLength":11664,"byteOffset":27216,"byteStride":12,"target":34962},{"buffer":0,"byteLength":7776,"byteOffset":38880,"byteStride":8,"target":34962},{"buffer":0,"byteLength":1944,"byteOffset":46656,"target":34963}],"buffers":[{"byteLength":48600,"uri":"CorridorMesh0.bin"}],"extensionsUsed":["GODOT_single_root"],"materials":[{}],"meshes":[{"name":"CorridorMesh2","primitives":[{"attributes":{"NORMAL":2,"POSITION":0,"TANGENT":1,"TEXCOORD_0":3},"indices":4,"material":0,"mode":4}]}],"nodes":[{"children":[1,2,3,4,5,6,7,8,9],"mesh":0,"name":"CorridorMesh2"},{"name":"Base","scale":[1.25,1.25,1.25]},{"name":"Hollower"},{"name":"Doorways","rotation":[0.0,-0.7071067690849304,0.0,0.7071067690849304],"translation":[-10.0,0.0,0.0]},{"name":"Doorways2","rotation":[0.0,-0.7071067690849304,0.0,0.7071067690849304]},{"name":"Doorways3","rotation":[0.0,-0.7071067690849304,0.0,0.7071067690849304],"translation":[10.0,0.0,0.0]},{"name":"Bevel1","rotation":[-1.672762550697371e-08,0.9238795638084412,-0.3826834559440613,4.038405876372053e-08],"translation":[0.0,2.5,-2.5]},{"name":"Bevel2","rotation":[-1.672762550697371e-08,0.9238795638084412,-0.3826834559440613,4.038405876372053e-08],"translation":[0.0,-2.5,-2.5]},{"name":"Bevel3","rotation":[-1.672762550697371e-08,0.9238795638084412,-0.3826834559440613,4.038405876372053e-08],"translation":[0.0,2.5,2.5]},{"name":"Bevel4","rotation":[-1.672762550697371e-08,0.9238795638084412,-0.3826834559440613,4.038405876372053e-08],"translation":[0.0,-2.5,2.5]}],"scene":0,"scenes":[{"nodes":[0]}]}