{"accessors":[{"bufferView":0,"componentType":5126,"count":60,"max":[2.0,2.4749999046325684,0.0],"min":[-2.0,0.0,-1.0],"normalized":false,"type":"VEC3"},{"bufferView":1,"componentType":5126,"count":60,"max":[0.0,0.0,7.630093023180962e-05,-1.0],"min":[-1.0,-1.0,-1.0,-1.0],"normalized":false,"type":"VEC4"},{"bufferView":2,"componentType":5126,"count":60,"max":[1.0,1.0,1.0],"min":[-1.0,-1.0,-1.0],"normalized":false,"type":"VEC3"},{"bufferView":3,"componentType":5126,"count":60,"max":[1.0,1.0],"min":[0.0,0.0],"normalized":false,"type":"VEC2"},{"bufferView":4,"componentType":5121,"count":60,"max":[59],"min":[0],"normalized":false,"type":"SCALAR"}],"asset":{"generator":"Godot Engine v4.6.stable.official@89cea143987d564363e15d207438530651d943ac","version":"2.0"},"bufferViews":[{"buffer":0,"byteLength":720,"byteStride":12,"target":34962},{"buffer":0,"byteLength":960,"byteOffset":720,"byteStride":16,"target":34962},{"buffer":0,"byteLength":720,"byteOffset":1680,"byteStride":12,"target":34962},{"buffer":0,"byteLength":480,"byteOffset":2400,"byteStride":8,"target":34962},{"buffer":0,"byteLength":60,"byteOffset":2880,"target":34963}],"buffers":[{"byteLength":2940,"uri":"DoorPartTop0.bin"}],"extensionsUsed":["GODOT_single_root"],"materials":[{}],"meshes":[{"name":"DoorPartTop2","primitives":[{"attributes":{"NORMAL":2,"POSITION":0,"TANGENT":1,"TEXCOORD_0":3},"indices":4,"material":0,"mode":4}]}],"nodes":[{"children":[1,2,3],"mesh":0,"name":"DoorPartTop2"},{"name":"CSGBox3D","translation":[0.0,0.22499999403953552,-0.5]},{"name":"CSGBox3D2","translation":[0.0,-1.980385184288025,-0.5]},{"name":"DoorPart1"}],"scene":0,"scenes":[{"nodes":[0]}]}