{"accessors":[{"bufferView":0,"componentType":5126,"count":96,"max":[2.125,2.125,0.20000000298023224],"min":[-2.125,-2.125,-0.20000000298023224],"normalized":false,"type":"VEC3"},{"bufferView":1,"componentType":5126,"count":96,"max":[0.0,0.0,7.630093023180962e-05,1.0],"min":[-1.0,-1.0,-1.0,-1.0],"normalized":false,"type":"VEC4"},{"bufferView":2,"componentType":5126,"count":96,"max":[1.0,1.0,1.0],"min":[-1.0,-1.0,-1.0],"normalized":false,"type":"VEC3"},{"bufferView":3,"componentType":5126,"count":96,"max":[1.0,1.0],"min":[0.0,0.0],"normalized":false,"type":"VEC2"},{"bufferView":4,"componentType":5121,"count":96,"max":[95],"min":[0],"normalized":false,"type":"SCALAR"}],"asset":{"generator":"Godot Engine v4.6.stable.official@89cea143987d564363e15d207438530651d943ac","version":"2.0"},"bufferViews":[{"buffer":0,"byteLength":1152,"byteStride":12,"target":34962},{"buffer":0,"byteLength":1536,"byteOffset":1152,"byteStride":16,"target":34962},{"buffer":0,"byteLength":1152,"byteOffset":2688,"byteStride":12,"target":34962},{"buffer":0,"byteLength":768,"byteOffset":3840,"byteStride":8,"target":34962},{"buffer":0,"byteLength":96,"byteOffset":4608,"target":34963}],"buffers":[{"byteLength":4704,"uri":"DoorFrame0.bin"}],"extensionsUsed":["GODOT_single_root"],"materials":[{}],"meshes":[{"name":"DoorFrame2","primitives":[{"attributes":{"NORMAL":2,"POSITION":0,"TANGENT":1,"TEXCOORD_0":3},"indices":4,"material":0,"mode":4}]}],"nodes":[{"children":[1,2],"mesh":0,"name":"DoorFrame2"},{"name":"CSGBox3D"},{"name":"Hollow"}],"scene":0,"scenes":[{"nodes":[0]}]}