{"accessors":[{"bufferView":0,"componentType":5126,"count":60,"max":[2.0,0.5,0.0],"min":[-2.0,-2.0,-1.0],"normalized":false,"type":"VEC3"},{"bufferView":1,"componentType":5126,"count":60,"max":[1.0,0.0,1.5259254723787308e-05,1.0],"min":[-1.0,-1.5259254723787308e-05,-1.0,1.0],"normalized":false,"type":"VEC4"},{"bufferView":2,"componentType":5126,"count":60,"max":[1.0,1.0,1.0],"min":[-1.0,-1.0,-1.0],"normalized":false,"type":"VEC3"},{"bufferView":3,"componentType":5126,"count":60,"max":[1.0,1.0],"min":[0.0,0.0],"normalized":false,"type":"VEC2"},{"bufferView":4,"componentType":5121,"count":60,"max":[59],"min":[0],"normalized":false,"type":"SCALAR"}],"asset":{"generator":"Godot Engine v4.6.stable.official@89cea143987d564363e15d207438530651d943ac","version":"2.0"},"bufferViews":[{"buffer":0,"byteLength":720,"byteStride":12,"target":34962},{"buffer":0,"byteLength":960,"byteOffset":720,"byteStride":16,"target":34962},{"buffer":0,"byteLength":720,"byteOffset":1680,"byteStride":12,"target":34962},{"buffer":0,"byteLength":480,"byteOffset":2400,"byteStride":8,"target":34962},{"buffer":0,"byteLength":60,"byteOffset":2880,"target":34963}],"buffers":[{"byteLength":2940,"uri":"DoorPartBottom0.bin"}],"extensionsUsed":["GODOT_single_root"],"materials":[{}],"meshes":[{"name":"DoorPartBottom2","primitives":[{"attributes":{"NORMAL":2,"POSITION":0,"TANGENT":1,"TEXCOORD_0":3},"indices":4,"material":0,"mode":4}]}],"nodes":[{"children":[1],"mesh":0,"name":"DoorPartBottom2"},{"name":"DoorPart1"}],"scene":0,"scenes":[{"nodes":[0]}]}