{"accessors":[{"bufferView":0,"componentType":5126,"count":2304,"max":[72.0,8.000001907348633,8.0],"min":[-48.0,-8.000001907348633,-8.0],"normalized":false,"type":"VEC3"},{"bufferView":1,"componentType":5126,"count":2304,"max":[1.0,1.0,0.9999999403953552,1.0],"min":[-1.0,-1.0,-1.0,-1.0],"normalized":false,"type":"VEC4"},{"bufferView":2,"componentType":5126,"count":2304,"max":[1.0,0.9996921420097351,0.9993689060211182],"min":[-1.0,-0.9984142184257507,-0.9993680715560913],"normalized":false,"type":"VEC3"},{"bufferView":3,"componentType":5126,"count":2304,"max":[1.0,1.0],"min":[0.0,0.0],"normalized":false,"type":"VEC2"},{"bufferView":4,"componentType":5123,"count":2304,"max":[2303],"min":[0],"normalized":false,"type":"SCALAR"}],"asset":{"generator":"Godot Engine v4.6.stable.official@89cea143987d564363e15d207438530651d943ac","version":"2.0"},"bufferViews":[{"buffer":0,"byteLength":27648,"byteStride":12,"target":34962},{"buffer":0,"byteLength":36864,"byteOffset":27648,"byteStride":16,"target":34962},{"buffer":0,"byteLength":27648,"byteOffset":64512,"byteStride":12,"target":34962},{"buffer":0,"byteLength":18432,"byteOffset":92160,"byteStride":8,"target":34962},{"buffer":0,"byteLength":4608,"byteOffset":110592,"target":34963}],"buffers":[{"byteLength":115200,"uri":"exterior_hull0.bin"}],"extensionsUsed":["GODOT_single_root"],"materials":[{}],"meshes":[{"name":"ExteriorHull2","primitives":[{"attributes":{"NORMAL":2,"POSITION":0,"TANGENT":1,"TEXCOORD_0":3},"indices":4,"material":0,"mode":4}]}],"nodes":[{"children":[1,4,7],"mesh":0,"name":"ExteriorHull2","translation":[30.0,0.0,0.0]},{"children":[2,3],"name":"MainBody","rotation":[0.0,0.0,0.7071067690849304,0.7071067690849304]},{"name":"End1","translation":[-1.1368683772161603e-13,40.0,0.0]},{"name":"End2","scale":[1.0,4.0,1.0],"translation":[0.0,-40.0,0.0]},{"children":[5,6],"name":"Hollow","rotation":[0.0,0.0,0.7071067690849304,0.7071067690849304],"scale":[0.8999999761581421,0.8999999761581421,0.8999999761581421]},{"name":"End12","scale":[0.8999999761581421,0.8999999761581421,0.8999999761581421],"translation":[-1.1368683772161603e-13,40.0,0.0]},{"name":"End22","scale":[0.8999999761581421,0.8999999761581421,0.8999999761581421],"translation":[0.0,-40.0,0.0]},{"name":"Cutout","rotation":[-0.6935199499130249,0.13794969022274017,-0.13794970512390137,0.6935198903083801],"translation":[0.40296173095703125,0.0,0.0]}],"scene":0,"scenes":[{"nodes":[0]}]}