{"accessors":[{"bufferView":0,"componentType":5126,"count":468,"max":[3.0,1.0000001192092896,0.21650640666484833],"min":[-3.0,1.5371474759717785e-08,-0.21650643646717072],"normalized":false,"type":"VEC3"},{"bufferView":1,"componentType":5126,"count":468,"max":[0.9899179339408875,1.0,1.0,1.0],"min":[-0.9807995557785034,-1.0,-1.0,-1.0],"normalized":false,"type":"VEC4"},{"bufferView":2,"componentType":5126,"count":468,"max":[1.0,0.9904464483261108,0.9486717581748962],"min":[-1.0,-1.0,-0.9707319736480713],"normalized":false,"type":"VEC3"},{"bufferView":3,"componentType":5126,"count":468,"max":[1.0,1.0],"min":[0.0,0.0],"normalized":false,"type":"VEC2"},{"bufferView":4,"componentType":5123,"count":468,"max":[467],"min":[0],"normalized":false,"type":"SCALAR"}],"asset":{"generator":"Godot Engine v4.6.stable.official@89cea143987d564363e15d207438530651d943ac","version":"2.0"},"bufferViews":[{"buffer":0,"byteLength":5616,"byteStride":12,"target":34962},{"buffer":0,"byteLength":7488,"byteOffset":5616,"byteStride":16,"target":34962},{"buffer":0,"byteLength":5616,"byteOffset":13104,"byteStride":12,"target":34962},{"buffer":0,"byteLength":3744,"byteOffset":18720,"byteStride":8,"target":34962},{"buffer":0,"byteLength":936,"byteOffset":22464,"target":34963}],"buffers":[{"byteLength":23400,"uri":"short_pipe0.bin"}],"extensionsUsed":["GODOT_single_root"],"materials":[{}],"meshes":[{"name":"CSGCombiner3D2","primitives":[{"attributes":{"NORMAL":2,"POSITION":0,"TANGENT":1,"TEXCOORD_0":3},"indices":4,"material":0,"mode":4}]}],"nodes":[{"children":[1,4,7],"mesh":0,"name":"CSGCombiner3D2"},{"children":[2,3],"name":"Curve1","rotation":[-0.7071067690849304,0.0,0.0,0.7071067690849304],"translation":[-2.0,0.0,0.0]},{"name":"hollower1","translation":[0.5,0.0,0.0]},{"name":"hollower2","rotation":[0.0,0.7071067690849304,3.0908619663705394e-08,0.7071067690849304],"translation":[0.0,0.0,-0.5]},{"children":[5,6],"name":"Curve2","rotation":[3.0908619663705394e-08,0.7071067690849304,0.7071067690849304,-3.0908619663705394e-08],"translation":[2.0,0.0,0.0]},{"name":"hollower12","translation":[0.5,0.0,0.0]},{"name":"hollower22","rotation":[0.0,0.7071067690849304,3.0908619663705394e-08,0.7071067690849304],"translation":[0.0,0.0,-0.5]},{"name":"CSGCylinder3D","rotation":[0.0,0.0,-0.7071067690849304,0.7071067690849304],"translation":[0.0,0.75,0.0]}],"scene":0,"scenes":[{"nodes":[0]}]}