{"accessors":[{"bufferView":0,"componentType":5126,"count":144,"max":[2.0,2.0,3.0],"min":[-2.0,-2.0,-3.0],"normalized":false,"type":"VEC3"},{"bufferView":1,"componentType":5126,"count":144,"max":[0.0,0.0,7.630093023180962e-05,1.0],"min":[-1.0,-1.0,-1.0,-1.0],"normalized":false,"type":"VEC4"},{"bufferView":2,"componentType":5126,"count":144,"max":[1.0,1.0,1.0],"min":[-1.0,-1.0,-1.0],"normalized":false,"type":"VEC3"},{"bufferView":3,"componentType":5126,"count":144,"max":[1.0,1.0],"min":[0.0,0.0],"normalized":false,"type":"VEC2"},{"bufferView":4,"componentType":5121,"count":144,"max":[143],"min":[0],"normalized":false,"type":"SCALAR"}],"asset":{"generator":"Godot Engine v4.6.stable.official@89cea143987d564363e15d207438530651d943ac","version":"2.0"},"bufferViews":[{"buffer":0,"byteLength":1728,"byteStride":12,"target":34962},{"buffer":0,"byteLength":2304,"byteOffset":1728,"byteStride":16,"target":34962},{"buffer":0,"byteLength":1728,"byteOffset":4032,"byteStride":12,"target":34962},{"buffer":0,"byteLength":1152,"byteOffset":5760,"byteStride":8,"target":34962},{"buffer":0,"byteLength":144,"byteOffset":6912,"target":34963}],"buffers":[{"byteLength":7056,"uri":"hollow_box0.bin"}],"extensionsUsed":["GODOT_single_root"],"materials":[{}],"meshes":[{"name":"HollowBox2","primitives":[{"attributes":{"NORMAL":2,"POSITION":0,"TANGENT":1,"TEXCOORD_0":3},"indices":4,"material":0,"mode":4}]}],"nodes":[{"children":[1,2,3,4,5,6],"mesh":0,"name":"HollowBox2"},{"name":"CSGBox3D"},{"name":"CSGBox3D2"},{"name":"CSGBox3D3","rotation":[0.0,0.0,-0.3826834559440613,0.9238795638084412],"translation":[-2.75,2.75,0.0]},{"name":"CSGBox3D4","rotation":[0.0,0.0,-0.3826834559440613,0.9238795638084412],"translation":[-2.75,-2.75,0.0]},{"name":"CSGBox3D5","rotation":[0.0,0.0,-0.3826834559440613,0.9238795638084412],"translation":[2.75,2.75,0.0]},{"name":"CSGBox3D6","rotation":[0.0,0.0,-0.3826834559440613,0.9238795638084412],"translation":[2.75,-2.75,0.0]}],"scene":0,"scenes":[{"nodes":[0]}]}